<?xml version="1.0" standalone="no"?>
<!DOCTYPE svg PUBLIC "-//W3C//DTD SVG 20010904//EN"
 "http://www.w3.org/TR/2001/REC-SVG-20010904/DTD/svg10.dtd">
<svg version="1.0" xmlns="http://www.w3.org/2000/svg"
 width="640.000000pt" height="640.000000pt" viewBox="0 0 640.000000 640.000000"
 preserveAspectRatio="xMidYMid meet">
<metadata>
Created by potrace 1.11, written by Peter Selinger 2001-2013
</metadata>
<g transform="translate(0.000000,640.000000) scale(0.100000,-0.100000)"
fill="#000000" stroke="none">
<path d="M2700 4679 c-190 -109 -376 -217 -413 -240 -37 -22 -89 -51 -115 -66
-26 -14 -67 -38 -92 -53 -25 -15 -145 -85 -267 -155 l-223 -128 0 -843 0 -842
148 -85 c208 -120 509 -294 627 -362 55 -32 118 -69 140 -81 22 -12 154 -87
292 -168 l253 -146 62 36 c35 19 79 44 98 56 93 54 550 318 590 340 25 14 153
88 285 165 132 77 282 163 333 192 l92 54 -2 844 -3 845 -40 22 c-22 13 -128
74 -235 136 -107 62 -213 123 -235 135 -22 13 -170 98 -330 190 -159 92 -308
178 -330 190 -22 13 -96 55 -163 94 -68 39 -125 71 -125 70 -1 0 -157 -90
-347 -200z"/>
</g>
</svg>
